# xmcd
#
# Track frame offsets:
#	150
#	14769
#	35078
#	48940
#	66398
#	87078
#	110244
#	128994
#	140865
#	155783
#	168494
#	183803
#	205680
#	220671
#
# Disc length: 3195 seconds
#
# Revision: 1
# Processed by: cddbd v1.5.2PL0 Copyright (c) Steve Scherf et al.
# Submitted via: audiograbber 1.83.01
#
DISCID=d50c790e
DTITLE=Hoy-Hoy! - Don't Tell Frank
DYEAR=1996
DGENRE=Blues
TTITLE0=Love Takes Time
TTITLE1=Backyarder Blues
TTITLE2=Blooz Muther
TTITLE3=Pick On Me
TTITLE4=Extra Jimmies
TTITLE5=Somethin' I Said
TTITLE6=She Should Have The Blues
TTITLE7=Too Late
TTITLE8=Gold Coast Runnin' Shoes
TTITLE9=Girl On The Train
TTITLE10=No Pain No Gain
TTITLE11=Goin' Fast, Feelin' Slow
TTITLE12=I Got Love
TTITLE13=She Takes Me Up
EXTD=
EXTT0=
EXTT1=
EXTT2=
EXTT3=
EXTT4=
EXTT5=
EXTT6=
EXTT7=
EXTT8=
EXTT9=
EXTT10=
EXTT11=
EXTT12=
EXTT13=
PLAYORDER=
